<?xml version="1.0" ?><!DOCTYPE svg  PUBLIC '-//W3C//DTD SVG 1.1//EN'  'http://www.w3.org/Graphics/SVG/1.1/DTD/svg11.dtd'><svg enable-background="new 0 0 24 24" height="24px" id="Layer_1" version="1.1" viewBox="0 0 24 24" width="24px" xml:space="preserve" xmlns="http://www.w3.org/2000/svg" xmlns:xlink="http://www.w3.org/1999/xlink"><g><g><path d="M18.1,23.5c-2.3,0-3.4-1.3-4.1-2.4c-0.7,0.1-1.3,0.2-2,0.2c-5.5,0-10-4.7-10-10.4S6.5,0.5,12,0.5c5.5,0,10,4.7,10,10.4    c0,3.5-1.6,6.6-4.4,8.6c0.6,0.8,1.9,1.2,1.9,1.2c0.2,0.1,0.4,0.3,0.4,0.5v1.7c0,0.2-0.2,0.4-0.4,0.5C19,23.4,18.5,23.5,18.1,23.5z     M14.2,20c0.2,0,0.4,0.1,0.4,0.3c1,1.8,2.2,2.4,4.3,2.1v-0.9c-0.6-0.2-1.9-0.8-2.4-2c-0.1-0.2,0-0.5,0.2-0.6    c2.7-1.7,4.3-4.7,4.3-8c0-5.2-4.1-9.4-9-9.4c-5,0-9,4.2-9,9.4s4.1,9.4,9,9.4c0.7,0,1.4-0.1,2.1-0.3C14.2,20,14.2,20,14.2,20z     M12.1,18.9c-3,0-5.4-3-5.4-6.7V9.7C6.7,6,9.1,3,12.1,3c3,0,5.4,3,5.4,6.7v2.6c0,1.7-0.5,3.3-1.4,4.6c-0.1,0.1-0.2,0.2-0.4,0.2    c-0.1,0-0.3-0.1-0.4-0.2c-0.6-0.7-1.9-1.8-3.9-1.8v1c0.6,0.2,1.6,0.6,2.3,1.9c0.1,0.1,0.1,0.3,0,0.4c-0.1,0.1-0.2,0.2-0.3,0.3    C12.9,18.8,12.5,18.9,12.1,18.9z M12.1,4C9.7,4,7.7,6.5,7.7,9.7v2.6c0,3.3,2.2,5.9,4.7,5.7C11.6,17,10.8,17,10.8,17    c-0.3,0-0.5-0.2-0.5-0.5v-1.9c0-0.3,0.2-0.5,0.5-0.5c2.2-0.1,3.8,0.9,4.7,1.7c0.6-1,0.9-2.2,0.9-3.5V9.7C16.4,6.5,14.5,4,12.1,4z"/></g></g></svg>